<?xml version="1.0" encoding="UTF-8"?>
<svg width="1025" height="1025" viewBox="0 0 1025 1025" xmlns="http://www.w3.org/2000/svg"><title>nodeauth-favicon</title><g fill="none" fill-rule="evenodd"><path d="M51.343.857C23.066.857.143 33.604.143 74v877.714c0 40.396 22.923 73.143 51.2 73.143h921.6c28.277 0 51.2-32.747 51.2-73.143V74c0-40.396-22.923-73.143-51.2-73.143z" fill="#3f9fff"/><path d="M656.453 755.937c21.93-21.485 41.967-44.14 58.362-69.474 12.993-20.077 24.309-41.36 34.886-62.837 7.315-14.852 12.758-30.738 17.807-46.555 3.869-12.119 6.144-24.79 8.528-37.33 2.63-13.842 4.621-27.807 6.786-41.735.493-3.178.773-6.423.783-9.638.228-72.158.247-144.317.693-216.473.124-19.983-10.678-24.366-24.774-24.25-31.232.26-62.466.05-93.7.093-21.323.029-34.635 13.3-34.638 34.634-.02 117.179-.019 234.358.075 351.536.006 7.543-1.673 13.946-7.095 19.615-8.36 8.74-25.2 11.047-34.674.424-10.304-11.554-20.006-23.662-29.654-35.78-10.776-13.534-21.235-27.322-31.761-41.054-13.324-17.383-26.546-34.843-39.87-52.226-9.375-12.23-18.844-24.386-28.273-36.574-10.994-14.212-22.038-28.387-32.933-42.675-1.73-2.268-2.79-5.048-4.158-7.59l-3.577 2.463c.422 5.613.83 11.228 1.273 16.84.184 2.336.643 4.666.644 7 .026 82.93.111 165.86-.08 248.788-.036 15.63.198 31.477-2.218 46.826-2.542 16.156-12.856 28.475-27.895 35.21-21.046 9.425-40.283 5.288-57.424-10.058-28.476-25.496-52.45-54.602-72.85-86.959-14.048-22.28-27.148-45.023-36.84-69.422-7.526-18.95-13.108-38.694-19.107-58.223-5.75-18.725-9.33-37.926-10.572-57.507-1.196-18.843-3.016-37.685-3.233-56.543-.69-59.857-.98-119.722-.964-179.583.01-25.806 8.072-48.173 32.86-60.401 7.426-3.664 16.327-5.765 24.621-5.988 29.922-.803 59.874-.522 89.814-.608 79.478-.232 158.953-.443 238.429-.66 2.726-.007 5.452 0 8.652 0-5.66 8.833-10.844 16.84-15.923 24.911-1.432 2.275-3.386 4.652-3.66 7.14-.753 6.866-5.258 6.49-10.22 6.497-100.806.159-201.613.39-302.419.633-2.572.005-5.229-.078-7.699.504-12.514 2.954-15.61 6.068-15.93 22.293-.726 37.035-.246 74.094-.152 111.143.065 26.058-.234 52.134.632 78.169.686 20.575 1.56 41.31 4.759 61.595 4.38 27.782 10.314 55.412 22.174 81.27 8.587 18.722 15.962 38.16 26.263 55.893 11.488 19.775 24.923 38.563 38.925 56.689 11.062 14.317 24.058 27.179 36.594 40.305 7.401 7.749 17.894 7.748 21.776.078 2.215-4.374 3.068-9.846 3.112-14.836.168-19.59-.29-39.183-.382-58.776-.031-6.667.518-13.336.48-20.003-.467-83.482-1.044-166.963-1.41-250.445-.032-7.221-.013-14.886 2.311-21.53 1.763-5.043 6.475-10.06 11.196-12.867 11.992-7.128 23.615-3.71 32.404 7.47 11.62 14.78 23.816 29.113 35.39 43.931 13.497 17.282 26.488 34.958 39.89 52.314 10.314 13.355 21.032 26.399 31.38 39.728 13.686 17.628 27.17 35.414 40.778 53.103 5.478 7.122 11.055 14.168 17.46 22.366.23-3.616.559-6.384.56-9.153.033-102.316-.403-204.635.318-306.945.208-29.511 14.065-52.688 42.029-64.745 9.411-4.059 20.304-6.176 30.59-6.437 31.859-.808 63.753-.495 95.63-.233 27.218.224 46.923 12.544 57.523 37.972 2.085 5.002 3.495 10.705 3.504 16.088.132 76.248.376 152.502-.45 228.742-.176 16.265-4.035 32.57-7.046 48.7-3.072 16.45-6.507 32.896-11.007 49.002-7.213 25.82-18.274 50.17-30.461 74.022-14.932 29.222-33.712 55.865-54.457 81.128-20.53 25-44.205 46.844-69.69 66.715-28.446 22.182-59.096 40.807-91.949 55.68-12.011 5.438-24.285 10.44-36.782 14.617-11.606 3.88-23.391 1.8-34.613-2.487-30.677-11.72-60.061-26.081-87.713-43.859-1.762-1.133-2.978-3.114-4.449-4.7 1.795-.844 3.65-1.583 5.374-2.551 7.559-4.243 15.678-7.789 22.43-13.074 5.625-4.403 9.91-5.002 15.778-1.239 18.694 11.991 38.73 21.252 59.602 28.817 8.914 3.232 17.64 2.269 25.61-1.668 22.842-11.283 45.76-22.52 67.897-35.095 24.034-13.652 45.02-31.682 66.121-50.158" stroke="#fff" stroke-width="55" fill="#fff" fill-rule="nonzero" stroke-linecap="square"/></g></svg>